<svg width="512" height="512" xmlns="http://www.w3.org/2000/svg">

 <g>
  <title>background</title>
  <rect fill="none" id="canvas_background" height="402" width="582" y="-1" x="-1"/>
 </g>
 <g>
  <title>Layer 1</title>
  <path id="svg_5" fill="#f0f6fc" d="m75.01,100.117c110.92,-129.432 316.599,-103.894 393.455,47.316c-54.131,0.025 -138.863,-0.033 -184.768,0c-33.281,0 -54.787,-0.749 -78.051,11.535c-27.352,14.448 -48.015,41.212 -55.209,72.682l-75.427,-131.533zm0,0"/>
  <path id="svg_6" fill="#f0f6fc" d="m176.625,256.02c0,43.869 35.583,79.546 79.304,79.546c43.725,0 79.307,-35.677 79.307,-79.546c0,-43.871 -35.582,-79.554 -79.307,-79.554c-43.753,-0.028 -79.304,35.682 -79.304,79.554l0,0zm0,0"/>
  <path id="svg_7" fill="#f0f6fc" d="m286.684,360.154c-44.504,13.244 -96.604,-1.441 -125.119,-50.849c-21.769,-37.678 -79.336,-138.192 -105.464,-183.918c-91.617,140.8 -12.675,332.645 153.633,365.396l76.95,-130.629zm0,0"/>
  <path id="svg_8" fill="#f0f6fc" d="m329.57,176.438c37.074,34.571 45.154,90.555 20.043,133.945c-18.908,32.72 -79.309,134.911 -108.563,184.374c171.348,10.585 296.25,-157.787 239.826,-318.353l-151.306,0.034zm0,0"/>
 </g>
</svg>