<svg width="1559.0600000000002" height="1559.0600000000002" xmlns="http://www.w3.org/2000/svg">
 <title>canva logo</title>

 <g>
  <title>Layer 1</title>
  <g stroke="null" id="canva_logo" data-name="canva logo">
   <path stroke="null" class="cls-1" d="m785.05977,1505.92477l-641.78765,0c-101.92342,0 -166.60202,-110.97698 -117.63251,-201.77633l261.12789,-484.40836c1.61375,0.50807 3.21322,1.01614 4.82697,1.56776c53.83933,17.76793 80.74471,26.66641 102.82312,36.37781c36.00237,15.7792 150.59303,67.67491 246.0186,183.66001c118.90352,144.49508 137.78298,303.09999 142.31006,346.06819a699.24007,710.76077 0 0 1 2.31352,118.51093z" fill="#f0f6fc" id="svg_1"/>
   <path stroke="null" class="cls-1" d="m1415.77966,1505.92477l-592.2469,0c3.456,-53.97154 16.30889,-126.93038 44.54241,-197.78436c18.92231,-47.45373 42.84297,-89.01385 57.6952,-114.96896c0,0 43.29996,-75.48467 99.96692,-147.28221c30.96118,-39.28106 117.97525,-149.74998 227.38191,-261.67052l280.30726,519.87164c48.95523,90.85742 -15.70909,201.8344 -117.64679,201.8344z" fill="#f0f6fc" id="svg_2"/>
   <path stroke="null" class="cls-1" d="m848.29599,1063.61363a951.98502,967.66994 0 0 1 -16.43742,95.45908c-12.31021,57.33932 -18.45104,86.00898 -33.10333,116.39156c-11.42479,-89.18804 -38.07312,-179.40674 -81.40164,-257.79467c-80.47337,-145.54025 -238.64961,-286.62401 -371.30572,-307.7452l192.79335,-357.52153c96.03965,93.15099 169.82952,196.69564 177.74119,207.97479c25.59153,36.552 118.80355,175.10992 134.2413,325.94862c8.39722,84.15089 -2.52774,177.28736 -2.52774,177.28736z" fill="#f0f6fc" id="svg_3"/>
   <path stroke="null" class="cls-1" d="m1188.46915,664.34326l-1.64231,1.45163c-115.90451,105.96887 -217.97074,241.88482 -298.01568,415.58667a1033.08676,1050.10791 0 0 0 -279.06481,-860.64139l52.18273,-96.83812c50.88316,-94.35584 184.31045,-94.35584 235.19361,0l291.34646,540.44122z" fill="#f0f6fc" id="svg_4"/>
  </g>
 </g>
</svg>