<svg width="1559.0600000000002" height="1559.0600000000002" xmlns="http://www.w3.org/2000/svg">

 <title>canva logo</title>
 <g>
  <title>Layer 1</title>
  <g data-name="canva logo" id="canva_logo">
   <path id="svg_1" fill="#f0f6fc" d="m783.40208,1279.92997l-449.4,0c-71.37,0 -116.66,-76.45 -82.37,-139l182.85,-333.7c1.13,0.35 2.25,0.7 3.38,1.08c37.7,12.24 56.54,18.37 72,25.06c25.21,10.87 105.45,46.62 172.27,126.52c83.26,99.54 96.48,208.8 99.65,238.4a489.63,489.63 0 0 1 1.62,81.64z" class="cls-1"/>
   <path id="svg_2" fill="#f0f6fc" d="m1225.05208,1279.92997l-414.71,0c2.42,-37.18 11.42,-87.44 31.19,-136.25c13.25,-32.69 30,-61.32 40.4,-79.2c0,0 30.32,-52 70,-101.46c21.68,-27.06 82.61,-103.16 159.22,-180.26l196.28,358.13c34.28,62.59 -11,139.04 -82.38,139.04z" class="cls-1"/>
   <path id="svg_3" fill="#f0f6fc" d="m827.68208,975.22997a666.61,666.61 0 0 1 -11.51,65.76c-8.62,39.5 -12.92,59.25 -23.18,80.18c-8,-61.44 -26.66,-123.59 -57,-177.59c-56.35,-100.26 -167.11,-197.45 -260,-212l135,-246.29c67.25,64.17 118.92,135.5 124.46,143.27c17.92,25.18 83.19,120.63 94,224.54c5.88,57.97 -1.77,122.13 -1.77,122.13z" class="cls-1"/>
   <path id="svg_4" fill="#f0f6fc" d="m1065.88208,700.17997l-1.15,1c-81.16,73 -152.63,166.63 -208.68,286.29a723.4,723.4 0 0 0 -195.41,-592.88l36.54,-66.71c35.63,-65 129.06,-65 164.69,0l204.01,372.3z" class="cls-1"/>
  </g>
 </g>
</svg>